<?xml version="1.0" encoding="UTF-8" standalone="no"?>
<svg
   xmlns:dc="http://purl.org/dc/elements/1.1/"
   xmlns:cc="http://creativecommons.org/ns#"
   xmlns:rdf="http://www.w3.org/1999/02/22-rdf-syntax-ns#"
   xmlns:svg="http://www.w3.org/2000/svg"
   xmlns="http://www.w3.org/2000/svg"
   xmlns:sodipodi="http://sodipodi.sourceforge.net/DTD/sodipodi-0.dtd"
   xmlns:inkscape="http://www.inkscape.org/namespaces/inkscape"
   width="96"
   height="96"
   viewBox="0 0 96 96"
   version="1.1"
   id="svg30"
   inkscape:version="1.0.1 (3bc2e813f5, 2020-09-07)"
   sodipodi:docname="drawing.svg">
  <defs
     id="defs24" />
  <sodipodi:namedview
     id="base"
     pagecolor="#ffffff"
     bordercolor="#666666"
     borderopacity="1.0"
     inkscape:pageopacity="0.0"
     inkscape:pageshadow="2"
     inkscape:zoom="7.9195959"
     inkscape:cx="25.070503"
     inkscape:cy="49.599865"
     inkscape:document-units="px"
     inkscape:current-layer="layer2"
     inkscape:document-rotation="0"
     showgrid="false"
     units="px"
     inkscape:window-width="1920"
     inkscape:window-height="1027"
     inkscape:window-x="-8"
     inkscape:window-y="-8"
     inkscape:window-maximized="1" />
  <metadata
     id="metadata27">
    <rdf:RDF>
      <cc:Work
         rdf:about="">
        <dc:format>image/svg+xml</dc:format>
        <dc:type
           rdf:resource="http://purl.org/dc/dcmitype/StillImage" />
        <dc:title></dc:title>
      </cc:Work>
    </rdf:RDF>
  </metadata>
  <g
     inkscape:groupmode="layer"
     id="layer2"
     inkscape:label="icon"
     style="display:inline">
    <rect
       style="fill:#e9ad2b;fill-opacity:1;stroke-width:1.44167"
       id="rect61"
       width="72"
       height="72"
       x="12"
       y="12"
       rx="3.9724138"
       ry="4.0019851" />
    <path
       id="path1002"
       style="opacity:1;fill:#f1bf53;fill-opacity:1"
       d="M 84,37.167969 A 28,28 0 0 0 64,64 28,28 0 0 0 72.404297,84 h 7.623047 C 82.228062,84 84,82.215147 84,79.998047 Z" />
    <path
       id="path936-0"
       style="display:inline;opacity:0.995;fill:#d7762e;fill-opacity:1;stroke-width:1.49377"
       d="m 60.056641,44 c -1.533715,0 -3.066976,0.58846 -4.242188,1.763672 L 36,65.578125 v 2.595703 h 25.675781 l -12.40625,12.40625 v 2.595703 H 82.423828 C 83.377286,82.446089 84,81.302751 84,79.998047 V 65.462891 L 64.300781,45.763672 C 63.12557,44.58846 61.590355,44 60.056641,44 Z" />
    <path
       id="rect892"
       style="fill:#b34b18;fill-opacity:1;stroke-width:1.49377"
       d="M 62.710938,61 H 12 V 79.998047 C 12,82.215147 13.771939,84 15.972656,84 h 64.054688 c 1.539945,0 2.855854,-0.883508 3.515625,-2.167969 z" />
    <path
       id="path936"
       style="fill:#bf6217;fill-opacity:1;stroke-width:1.49377"
       d="m 36.056641,36.826172 c -1.533715,0 -3.066976,0.58846 -4.242188,1.763672 L 12,58.404297 V 61 H 62.710938 L 40.300781,38.589844 c -1.175211,-1.175212 -2.710426,-1.763672 -4.24414,-1.763672 z" />
    <circle
       style="opacity:1;fill:#ffffff;fill-opacity:1"
       id="path1022"
       cx="61"
       cy="29"
       r="7" />
  </g>
</svg>
